<?xml version="1.0" standalone="no"?>
<!DOCTYPE svg PUBLIC "-//W3C//DTD SVG 20010904//EN"
 "http://www.w3.org/TR/2001/REC-SVG-20010904/DTD/svg10.dtd">
<svg version="1.0" xmlns="http://www.w3.org/2000/svg"
 width="626.000000pt" height="626.000000pt" viewBox="0 0 626.000000 626.000000"
 preserveAspectRatio="xMidYMid meet">

<g transform="translate(0.000000,626.000000) scale(0.100000,-0.100000)"
fill="#000000" stroke="none">
<path d="M3488 4429 c19 -20 14 -31 -7 -19 -44 23 -125 4 -182 -44 -40 -34
-84 -42 -116 -21 -24 16 -27 16 -52 -2 -49 -37 -36 -140 24 -179 14 -9 25 -22
25 -28 0 -7 6 -20 13 -29 11 -15 13 -15 23 7 9 20 9 23 -2 19 -8 -3 -14 0 -14
6 0 6 11 11 25 11 13 0 62 20 109 45 l85 44 6 -29 c4 -16 20 -44 36 -61 l30
-32 20 32 c16 26 25 32 44 28 21 -4 25 0 31 30 11 60 -2 115 -34 144 -16 14
-32 38 -35 51 -4 14 -15 29 -24 32 -15 6 -16 5 -5 -5z"/>
<path d="M3958 4416 c-21 -8 -50 -21 -64 -31 l-27 -17 154 -154 c85 -85 157
-154 161 -154 3 0 19 25 33 55 23 46 27 64 22 108 -3 28 -9 63 -13 76 -5 17
57 -25 239 -160 227 -170 245 -186 240 -210 -4 -19 1 -31 16 -41 20 -14 19
-19 -125 -359 -80 -189 -148 -350 -151 -356 -4 -9 -32 -13 -92 -13 -83 0 -88
-1 -101 -25 l-13 -25 -403 0 c-310 0 -403 3 -406 12 -7 19 31 77 60 92 30 15
48 80 58 201 5 64 3 76 -25 135 -17 36 -31 81 -31 100 0 47 -9 58 -49 62 -45
4 -62 30 -37 57 25 28 5 27 -54 -2 -26 -13 -56 -39 -72 -62 -30 -43 -72 -191
-84 -293 l-6 -60 75 -17 74 -16 7 -67 c4 -37 9 -84 13 -104 l6 -38 -379 0
c-209 0 -463 3 -566 7 l-188 6 0 48 0 48 103 4 c84 2 75 3 -50 5 -110 1 -153
5 -156 15 -4 10 -6 10 -6 0 -1 -10 -58 -13 -251 -13 l-250 0 0 -60 0 -59 -127
-3 -128 -3 0 -30 c0 -28 3 -30 43 -33 l43 -3 -6 -82 c-3 -45 -17 -325 -30
-622 -14 -297 -32 -681 -40 -854 -8 -172 -15 -335 -15 -362 l0 -49 35 0 c21 0
35 5 35 13 0 6 9 152 20 322 11 171 29 461 41 645 11 184 26 421 32 525 l12
190 265 0 265 0 52 -815 c28 -448 52 -830 52 -847 1 -31 3 -33 40 -33 l38 0
-3 48 c-2 26 -11 202 -19 392 -9 190 -22 480 -30 645 -8 165 -17 371 -21 458
l-7 157 262 0 c143 0 261 -3 261 -7 -1 -5 -18 -20 -39 -34 -21 -15 -51 -44
-67 -65 -28 -37 -29 -40 -28 -158 2 -136 23 -235 89 -411 40 -107 145 -326
213 -442 37 -63 42 -79 42 -132 0 -50 -3 -61 -16 -61 -12 0 -15 -6 -10 -22 3
-13 6 -37 6 -55 0 -30 3 -32 43 -38 65 -9 217 -12 222 -5 2 4 5 29 7 57 3 48
6 53 45 78 l43 27 -21 39 c-14 29 -25 39 -37 35 -30 -10 -39 22 -30 104 4 41
10 222 14 403 l7 327 383 0 c210 0 389 3 398 6 23 9 22 90 -1 103 -16 8 -16
11 5 28 23 19 51 123 52 191 0 31 2 32 40 32 l40 0 0 -57 c0 -32 -13 -337 -30
-678 -16 -341 -32 -698 -36 -792 l-7 -173 36 0 c29 0 37 4 37 18 0 9 27 447
60 972 33 525 60 961 60 968 0 9 57 12 250 12 l250 0 0 -27 c0 -16 27 -458 60
-983 33 -525 60 -956 60 -957 0 -2 16 -3 35 -3 l35 0 0 58 c0 31 -9 246 -20
477 -23 491 -58 1259 -62 1360 l-3 70 40 5 c37 5 40 8 40 35 l0 30 -131 3
c-128 2 -131 3 -144 27 -12 23 -19 25 -82 25 -62 0 -69 2 -64 18 3 9 70 170
149 356 107 254 149 341 164 347 46 17 34 79 -16 79 -36 0 -551 383 -551 410
0 26 -26 43 -55 36 -14 -4 -46 0 -71 9 -54 18 -87 18 -136 1z m-1908 -1431 l0
-55 -212 0 c-117 0 -230 -3 -250 -6 l-38 -7 0 62 0 61 250 0 250 0 0 -55z
m1314 39 c3 -9 6 -33 6 -55 l0 -39 -604 0 -604 0 -4 51 c-1 28 -1 53 1 55 2 2
273 4 602 4 535 0 597 -2 603 -16z m737 -39 c-1 -27 -5 -52 -6 -55 -2 -3 -22
-4 -44 -2 l-41 4 0 55 0 54 48 -3 47 -3 -4 -50z"/>
<path d="M3310 4166 c0 -2 14 -6 30 -8 17 -3 30 -1 30 4 0 4 -13 8 -30 8 -16
0 -30 -2 -30 -4z"/>
<path d="M3337 4123 c-3 -5 -2 -15 2 -22 7 -10 10 -10 16 -1 4 6 3 16 -3 22
-5 5 -12 6 -15 1z"/>
<path d="M3235 4081 c-3 -5 -1 -12 5 -16 5 -3 10 1 10 9 0 18 -6 21 -15 7z"/>
<path d="M3568 4063 c-2 -5 -1 -26 3 -48 l6 -40 2 48 c1 44 -3 57 -11 40z"/>
<path d="M3364 3978 l-19 -23 23 19 c12 11 22 21 22 23 0 8 -8 2 -26 -19z"/>
<path d="M3631 3839 c9 -18 6 -26 -21 -54 -17 -18 -50 -41 -72 -51 l-40 -18 6
-56 c4 -30 20 -82 36 -116 33 -68 37 -109 16 -193 -28 -114 -28 -118 2 -125
172 -36 261 -43 307 -26 26 10 27 13 20 56 -3 25 -13 64 -21 86 -8 22 -14 46
-14 53 0 6 45 33 100 58 55 25 100 49 100 53 0 16 -75 193 -98 229 -65 106
-100 125 -232 125 -99 0 -101 0 -89 -21z"/>
<path d="M1680 3481 c0 -22 5 -43 10 -46 6 -4 8 -11 4 -16 -3 -6 -3 -21 0 -35
l6 -24 210 0 209 0 4 -52 3 -53 2 53 2 52 148 2 c81 1 121 3 90 5 -56 4 -58 5
-58 33 0 28 -2 29 -52 32 l-53 3 0 43 0 42 -262 0 -263 0 0 -39z"/>
<path d="M1628 3353 c12 -2 32 -2 45 0 12 2 2 4 -23 4 -25 0 -35 -2 -22 -4z"/>
<path d="M2730 3357 c0 -11 113 -217 117 -214 2 3 -21 53 -52 111 -49 92 -65
117 -65 103z"/>
<path d="M1696 3323 c-3 -8 -6 -26 -6 -39 0 -20 5 -24 33 -24 74 -2 331 1 333
3 1 1 4 18 6 37 l3 35 -182 1 c-150 1 -183 -1 -187 -13z"/>
<path d="M3209 1341 c-24 -16 -54 -39 -65 -50 -12 -11 -25 -17 -28 -13 -4 3
-4 -1 -1 -9 3 -8 -4 -27 -15 -42 -19 -24 -28 -27 -81 -27 -46 0 -68 -6 -97
-24 -20 -13 -61 -33 -90 -43 -42 -14 -52 -22 -50 -38 3 -19 12 -20 166 -23
l162 -2 0 29 c0 28 9 35 105 91 58 34 108 66 111 71 6 10 -8 33 -49 82 l-23
27 -45 -29z"/>
</g>
</svg>
