<svg xmlns="http://www.w3.org/2000/svg" width="1249" height="574" viewBox="0 0 1249 574" version="1.1"><path d="M 451.171 79.777 C 441.970 109.779, 456.396 135.188, 491.136 150.165 C 514.852 160.389, 543.544 165.833, 585 167.974 C 612.427 169.390, 613.609 169.175, 595.500 166.061 C 528.076 154.466, 478.973 124.340, 457.383 81.323 L 453.233 73.054 451.171 79.777 M 791.222 82.165 C 770.711 124.058, 720.777 154.475, 653.500 166.058 C 635.392 169.175, 636.572 169.390, 664 167.974 C 745.377 163.772, 790.377 143.833, 799.612 107.887 C 801.488 100.584, 801.031 88.665, 798.569 80.743 C 796.077 72.720, 795.822 72.769, 791.222 82.165 M 471.495 155.250 C 472.930 166.295, 478.277 174.062, 488.500 179.951 C 495.948 184.241, 504.017 186.046, 518.638 186.694 C 537.548 187.531, 557.694 184.773, 584.500 177.677 L 596.500 174.500 589 174.281 C 531.997 172.613, 496.988 166.194, 478.015 153.931 C 474.669 151.769, 471.680 150, 471.372 150 C 471.064 150, 471.119 152.363, 471.495 155.250 M 769.500 154.629 C 750.452 166.330, 709.532 173.696, 661.500 174.071 L 651.500 174.149 660 176.541 C 705.915 189.461, 744.110 190.313, 762.222 178.823 C 770.913 173.309, 776.099 165.525, 777.513 155.868 C 777.886 153.321, 777.811 151.032, 777.346 150.783 C 776.881 150.533, 773.350 152.264, 769.500 154.629 M 593 182.634 C 582.993 185.829, 564.455 190.155, 550.391 192.577 C 531.024 195.911, 510.192 196.199, 499.238 193.282 L 491.976 191.348 492.596 193.424 C 494.991 201.436, 502.421 208.885, 510.292 211.164 C 512.606 211.835, 518.325 212.360, 523 212.332 C 540.296 212.229, 561.279 204.314, 590.750 186.775 C 601.142 180.591, 601.507 179.918, 593 182.634 M 650 181.393 C 650 182.331, 671.491 194.377, 682 199.329 C 702.262 208.876, 716.064 212.494, 729.614 211.808 C 742.880 211.137, 749.281 207.265, 754.672 196.651 C 756.026 193.983, 756.971 191.637, 756.771 191.437 C 756.570 191.237, 754.178 191.822, 751.453 192.736 C 745.042 194.888, 712.270 195.163, 701 193.159 C 689.394 191.095, 672.538 187.191, 661.229 183.946 C 650.496 180.867, 650 180.755, 650 181.393 M 592.277 194.379 C 581.609 201.697, 560.703 212.647, 550.367 216.331 C 546.444 217.729, 539.470 219.388, 534.869 220.018 C 530.268 220.648, 526.378 221.288, 526.225 221.441 C 526.072 221.594, 527.734 223.333, 529.917 225.306 C 542.661 236.820, 561.925 230.051, 586.268 205.506 C 595.025 196.677, 602.794 187.952, 601.834 188.026 C 601.650 188.040, 597.350 190.899, 592.277 194.379 M 650.066 192.183 C 651.903 194.557, 658.153 201.192, 663.953 206.926 C 680.285 223.071, 693.960 231, 705.472 231 C 712.475 231, 715.530 229.764, 719.652 225.265 L 723.020 221.588 713.260 219.947 C 697.506 217.300, 678.762 208.825, 656.613 194.334 L 646.725 187.865 650.066 192.183 M 643 196.358 C 643 196.754, 644.669 200.773, 646.708 205.289 C 658.740 231.931, 670.714 242.598, 682.500 237.175 L 686.500 235.335 682 233.311 C 672.243 228.923, 658.014 215.799, 647.044 201.069 C 644.820 198.083, 643 195.963, 643 196.358 M 602.828 199.713 C 599.766 204.892, 586.808 219.114, 580.133 224.622 C 576.485 227.632, 571.055 231.292, 568.067 232.755 L 562.633 235.414 566.567 237.179 C 573.657 240.362, 579.977 238.088, 587.784 229.546 C 592.870 223.981, 605.637 200.412, 604.848 198.044 C 604.643 197.429, 603.734 198.180, 602.828 199.713 M 543.137 296.711 C 538.256 299.307, 536.384 302.958, 537.558 307.589 C 538.786 312.438, 542.847 315.455, 548.145 315.455 C 556.753 315.455, 561.344 304.578, 555.214 298.705 C 551.496 295.143, 547.366 294.461, 543.137 296.711 M 459 345 L 459 393 468.500 393 L 478 393 478.042 385.250 C 478.081 377.934, 478.268 377.291, 481.375 373.777 L 484.666 370.053 493.850 381.527 L 503.033 393 514.639 393 C 523.774 393, 526.038 392.734, 525.275 391.750 C 524.742 391.063, 518.122 382.747, 510.564 373.271 L 496.824 356.042 510.412 340.291 C 517.885 331.628, 524 324.179, 524 323.737 C 524 323.296, 518.946 323.062, 512.769 323.217 L 501.538 323.500 490.019 337.645 L 478.500 351.791 478.234 324.395 L 477.968 297 468.484 297 L 459 297 459 345 M 576 345.036 L 576 393.072 585.750 392.786 L 595.500 392.500 595.760 344.750 L 596.019 297 586.010 297 L 576 297 576 345.036 M 614 345 L 614 393 623.500 393 L 633 393 633 345 L 633 297 623.500 297 L 614 297 614 345 M 1010 313.589 L 1010 330.178 1007.039 327.687 C 1001.702 323.196, 996.040 321.702, 986.282 322.209 C 975.982 322.744, 969.742 325.258, 963.690 331.310 C 950.614 344.386, 950.534 371.468, 963.533 384.467 C 974.372 395.306, 996.409 397.258, 1007.031 388.320 L 1010 385.822 1010 389.449 L 1010 393.075 1019.250 392.788 L 1028.500 392.500 1028.760 344.750 L 1029.019 297 1019.510 297 L 1010 297 1010 313.589 M 396.820 299.232 C 386.674 300.361, 379.241 303.503, 373.981 308.888 C 368.886 314.103, 366.989 319.072, 367.022 327.116 C 367.062 337.038, 372.653 344.663, 383.542 349.648 C 386.366 350.941, 395.116 353.363, 402.986 355.032 C 410.857 356.700, 417.792 358.342, 418.398 358.681 C 426.496 363.210, 425.617 371.549, 416.685 374.933 C 415.137 375.520, 410.735 376, 406.903 376 C 397.451 376, 388.641 373.053, 378.779 366.591 L 376.231 364.922 371.607 371.403 C 369.063 374.967, 366.724 378.556, 366.409 379.377 C 366.019 380.393, 367.540 381.998, 371.168 384.397 C 391.798 398.041, 424.148 398.029, 437.201 384.372 C 442.078 379.270, 444.140 374.044, 444.216 366.598 C 444.302 358.102, 442.620 352.946, 438.320 348.518 C 433.335 343.385, 426.332 340.377, 412.290 337.339 C 395.371 333.678, 393.859 333.245, 390.250 331.027 C 384.172 327.291, 386.569 320.644, 394.894 318.150 C 403.166 315.672, 413.860 317.473, 423.639 322.991 C 426.722 324.732, 429.581 325.783, 429.991 325.328 C 431.620 323.521, 440 311.565, 439.998 311.050 C 439.995 310.036, 431.563 305.215, 425 302.475 C 417.499 299.343, 406.845 298.117, 396.820 299.232 M 165 300.368 C 151.599 304.396, 139.687 313.852, 134.020 324.961 C 128.354 336.067, 127.495 351.760, 131.923 363.243 C 136.531 375.190, 146.958 385.477, 160 390.941 C 167.672 394.155, 184.166 394.961, 192.577 392.533 C 206.693 388.457, 217.490 379.587, 223.207 367.371 C 225.840 361.744, 226.390 359.210, 226.793 350.862 L 227.267 341 204.384 341.009 C 191.798 341.013, 179.137 341.301, 176.250 341.648 L 171 342.279 171 350.014 L 171 357.750 174.125 358.375 C 175.844 358.719, 183.494 359, 191.125 359 C 207.170 359, 207.543 359.286, 200.892 366.502 C 186.334 382.295, 160.797 378.542, 151.306 359.214 C 145.522 347.435, 148.529 332.986, 158.612 324.111 C 164.034 319.338, 170.408 317, 178 317 C 186.204 317, 192.139 319.398, 198.229 325.172 L 203.500 330.170 209.751 326.835 C 213.189 325.001, 216.981 322.763, 218.178 321.862 L 220.355 320.224 214.579 314.169 C 210.344 309.728, 206.516 306.980, 200.226 303.864 C 191.901 299.740, 191.323 299.606, 180.574 299.315 C 173.326 299.119, 167.945 299.483, 165 300.368 M 690 346.439 L 690 393 700 393 L 710 393 710 378.500 L 710 364 716.916 364 C 723.728 364, 723.875 364.056, 726.717 367.750 C 728.304 369.813, 733.352 376.337, 737.935 382.250 L 746.269 393 758.135 393 C 764.661 393, 770 392.787, 770 392.527 C 770 392.266, 764.833 385.404, 758.517 377.277 C 752.202 369.149, 747.027 362.265, 747.017 361.977 C 747.008 361.690, 748.622 360.581, 750.605 359.513 C 759.256 354.854, 765 343.876, 765 332 C 765 318.704, 758.739 308.582, 747.155 303.151 C 741.563 300.530, 741.213 300.497, 715.750 300.189 L 690 299.877 690 346.439 M 710 332 L 710 346 722.750 345.985 C 736.956 345.969, 739.204 345.305, 742.720 340.088 C 746.936 333.831, 744.923 322.563, 739.046 319.524 C 736.848 318.387, 732.784 318, 723.050 318 L 710 318 710 332 M 265.776 323.479 C 255.411 326.332, 246.932 333.649, 242.135 343.880 C 239.892 348.664, 239.503 350.839, 239.520 358.500 C 239.539 366.819, 239.799 367.979, 242.955 373.834 C 247.168 381.653, 255.244 389.051, 262.666 391.891 C 270.054 394.718, 282.866 394.803, 290.053 392.072 C 305.870 386.062, 316.167 370.266, 314.433 354.669 C 313.439 345.723, 308.062 335.863, 301.273 330.534 C 291.505 322.868, 277.854 320.155, 265.776 323.479 M 801.487 323.742 C 790.142 327.794, 782.744 334.016, 778.714 342.897 C 775.623 349.709, 775.603 366.559, 778.679 373.217 C 783.828 384.363, 794.434 391.732, 808.723 394.091 C 816.949 395.450, 825.640 394.244, 832.367 390.813 C 836.393 388.759, 846 380.369, 846 378.907 C 846 378.457, 842.867 376.258, 839.038 374.022 L 832.075 369.956 827.594 373.376 C 821.747 377.839, 815.355 378.822, 807.303 376.497 C 804.112 375.575, 800.666 374.075, 799.648 373.163 C 797.935 371.630, 795 366.822, 795 365.550 C 795 365.247, 807.326 365, 822.392 365 L 849.783 365 850.446 362.359 C 851.369 358.681, 850.107 349.481, 847.838 343.351 C 845.397 336.758, 838.205 329.405, 830.438 325.563 C 822.725 321.748, 809.414 320.910, 801.487 323.742 M 887 322.935 C 878.108 325.650, 870.499 332.248, 866.249 340.928 C 863.759 346.013, 863.521 347.506, 863.521 358 C 863.521 368.528, 863.754 369.977, 866.282 375.143 C 869.506 381.729, 876.205 388.284, 882.824 391.329 C 886.563 393.048, 889.410 393.481, 897.031 393.489 C 905.674 393.499, 907.142 393.213, 912.781 390.420 L 919 387.341 919 390.170 L 919 393 928.500 393 L 938 393 938 358 L 938 323 928.500 323 L 919 323 919 326.547 L 919 330.094 915.250 327.171 C 913.188 325.563, 909.970 323.742, 908.101 323.124 C 904.315 321.872, 890.875 321.752, 887 322.935 M 538 358 L 538 393 547.500 393 L 557 393 557 358 L 557 323 547.500 323 L 538 323 538 358 M 1041.373 326.250 C 1042.142 328.038, 1048.913 343.186, 1056.419 359.914 L 1070.066 390.328 1065.396 401.414 C 1062.828 407.511, 1060.107 413.962, 1059.350 415.750 L 1057.973 419 1068.316 419 L 1078.658 419 1097.478 372.789 C 1107.829 347.372, 1116.508 325.772, 1116.766 324.789 C 1117.193 323.154, 1116.326 323, 1106.717 323 L 1096.201 323 1091.498 335.750 C 1088.912 342.762, 1085.430 352.325, 1083.762 357 C 1082.093 361.675, 1080.395 365.871, 1079.989 366.324 C 1079.584 366.778, 1075.286 357.215, 1070.439 345.074 L 1061.627 323 1050.800 323 L 1039.973 323 1041.373 326.250 M 270.637 339.420 C 266.172 341.064, 261.506 345.194, 259.249 349.500 C 255.860 355.967, 258.156 368.313, 263.644 373.129 C 271.475 380.003, 283.631 379.415, 290.716 371.819 C 293.282 369.068, 296 361.972, 296 358.023 C 296 345.186, 282.290 335.129, 270.637 339.420 M 893.500 339.202 C 889.290 340.667, 884.247 345.720, 882.889 349.837 C 879.572 359.887, 883.277 371.050, 891.293 375.160 C 896.441 377.799, 905.094 378.053, 909.631 375.697 C 920.900 369.846, 923.339 353.916, 914.470 344.098 C 909.479 338.574, 900.997 336.593, 893.500 339.202 M 983.500 339.400 C 970.446 345.154, 968.119 364.887, 979.474 373.548 C 991.015 382.351, 1007.494 376.441, 1010.086 362.569 C 1011.918 352.765, 1007.238 342.797, 999.233 339.453 C 994.944 337.661, 987.503 337.636, 983.500 339.400 M 803.840 341.022 C 799.603 343.260, 796 347.448, 796 350.135 C 796 351.882, 797.076 352, 813 352 C 828.155 352, 830 351.820, 830 350.344 C 830 347.673, 825.013 341.904, 821.400 340.394 C 816.634 338.403, 808.229 338.703, 803.840 341.022 M 229.632 456.293 C 227.288 466.984, 227.630 470.399, 231.086 470.801 C 232.508 470.966, 234.228 470.430, 234.909 469.610 C 235.990 468.307, 235.763 468.263, 233.111 469.264 C 231.442 469.894, 229.745 470.078, 229.339 469.673 C 228.934 469.268, 229.590 464.584, 230.798 459.264 C 232.005 453.945, 232.644 449.244, 232.217 448.817 C 231.791 448.391, 230.627 451.755, 229.632 456.293 M 400.500 448.655 C 399.400 448.887, 395.231 449.767, 391.235 450.610 C 386.869 451.531, 384.221 452.549, 384.600 453.161 C 384.953 453.733, 386.664 453.910, 388.501 453.566 L 391.774 452.952 391.257 459.390 C 390.712 466.172, 391.419 471, 392.955 471 C 393.460 471, 393.824 468.863, 393.764 466.250 C 393.444 452.254, 393.741 451.692, 402 450.663 C 404.475 450.354, 406.725 450.072, 407 450.036 C 407.275 449.999, 406.825 449.533, 406 449 C 404.438 447.991, 403.824 447.952, 400.500 448.655 M 425.802 454.102 L 425.500 460.500 422.169 460.819 L 418.839 461.139 419.519 455.690 C 419.923 452.459, 419.804 449.997, 419.227 449.640 C 418.662 449.291, 417.968 451.566, 417.571 455.072 C 417.117 459.090, 416.378 461.301, 415.361 461.692 C 414.140 462.160, 414.097 462.442, 415.145 463.090 C 415.939 463.580, 416.337 465.306, 416.153 467.451 C 415.733 472.323, 417.593 471.948, 418.384 467 C 418.970 463.336, 419.283 463, 422.110 463 L 425.196 463 424.485 469.129 C 424.013 473.192, 424.116 475.047, 424.788 474.631 C 425.347 474.286, 426.117 471.303, 426.500 468.002 C 426.883 464.701, 427.518 462, 427.912 462 C 428.884 462, 427.997 449.729, 426.943 448.602 C 426.481 448.107, 425.967 450.582, 425.802 454.102 M 444.330 450.427 C 439.566 452.645, 437 455.273, 437 457.934 C 437 458.520, 437.450 459, 438 459 C 438.550 459, 439 458.395, 439 457.655 C 439 456.007, 442.188 453, 443.936 453 C 444.671 453, 444.965 453.648, 444.628 454.527 C 444.306 455.366, 443.827 459.754, 443.564 464.277 C 443.160 471.212, 443.254 471.946, 444.166 468.966 C 444.796 466.905, 446.244 464.961, 447.636 464.304 C 449.828 463.269, 450.276 463.540, 453.061 467.588 C 454.730 470.015, 456.862 471.986, 457.798 471.968 C 459.325 471.940, 459.339 471.811, 457.937 470.718 C 457.078 470.048, 455.181 467.731, 453.722 465.570 C 451.115 461.706, 451.104 461.616, 453.041 460.259 C 454.125 459.500, 455.698 457.550, 456.538 455.926 C 457.989 453.121, 457.941 452.850, 455.578 450.487 C 452.491 447.400, 450.849 447.391, 444.330 450.427 M 606.679 450.340 C 600.815 455.159, 598.108 466.978, 602.050 470.545 C 604.041 472.347, 604.199 472.348, 607.506 470.567 C 609.379 469.558, 610.819 468.447, 610.705 468.097 C 610.592 467.747, 611.737 466.124, 613.250 464.490 C 617.816 459.559, 616.342 459.507, 610.892 464.407 C 604.525 470.132, 602 470.428, 602 465.450 C 602 461.565, 604.086 456.755, 607.291 453.250 C 609.636 450.685, 611.494 450.269, 610.638 452.500 C 610.322 453.325, 610.472 454, 610.972 454 C 613.401 454, 613.076 449.627, 610.576 448.668 C 609.878 448.400, 608.124 449.152, 606.679 450.340 M 636 452.918 C 636 459.640, 635.312 461, 631.908 461 L 629.031 461 629.658 455 C 630.066 451.097, 629.920 449, 629.241 449 C 628.666 449, 627.887 451.667, 627.508 454.927 C 627.043 458.939, 626.311 461.051, 625.243 461.460 C 624.041 461.922, 623.943 462.343, 624.833 463.233 C 625.475 463.875, 626 465.858, 626 467.641 C 626 469.424, 626.450 471.160, 627 471.500 C 627.581 471.859, 628 470.868, 628 469.130 C 628 465.678, 630.254 463, 633.159 463 C 634.969 463, 635.108 463.437, 634.515 467.250 C 634.151 469.587, 633.615 472.341, 633.322 473.368 C 632.960 474.640, 633.223 475.095, 634.145 474.794 C 634.926 474.539, 635.892 471.841, 636.427 468.426 C 636.936 465.167, 637.614 462.275, 637.932 462 C 638.871 461.187, 637.914 448, 636.915 448 C 636.412 448, 636 450.213, 636 452.918 M 910 448.666 C 901.086 450.070, 893.050 452.273, 893.600 453.161 C 893.957 453.740, 895.676 453.908, 897.581 453.551 L 900.932 452.922 900.331 459.356 C 899.704 466.075, 900.391 471, 901.955 471 C 902.460 471, 902.824 468.863, 902.764 466.250 C 902.444 452.254, 902.741 451.692, 911 450.663 C 913.475 450.354, 915.725 450.072, 916 450.036 C 916.275 449.999, 915.825 449.533, 915 449 C 914.175 448.467, 913.275 448.085, 913 448.151 C 912.725 448.218, 911.375 448.450, 910 448.666 M 953.674 449 C 952.428 451.939, 950.029 463.554, 950.015 466.715 C 949.995 471.082, 953.077 472.835, 956.654 470.491 C 959.566 468.583, 959.159 467.309, 956.151 468.919 C 955.040 469.514, 953.652 470, 953.066 470 C 951.559 470, 951.743 465.231, 953.550 457.441 C 955.053 450.961, 955.132 445.559, 953.674 449 M 972.683 455.750 C 970.167 467.886, 970.191 469.497, 972.907 470.950 C 974.379 471.738, 975.349 471.514, 977.157 469.969 L 979.500 467.968 976.723 469.157 C 972.278 471.060, 971.854 469.465, 974.018 458.981 C 976.274 448.043, 976.279 448, 975.145 448 C 974.674 448, 973.566 451.488, 972.683 455.750 M 301.500 450.412 C 297.618 452.137, 293.586 456.522, 294.509 458.014 C 294.988 458.790, 295.606 458.434, 296.364 456.946 C 296.989 455.720, 298.587 454.001, 299.915 453.127 L 302.330 451.537 301.718 455.519 C 300.234 465.180, 299.852 472.496, 300.909 471 C 301.492 470.175, 301.976 468.337, 301.985 466.917 C 301.993 465.496, 302.563 464.312, 303.250 464.286 C 303.938 464.260, 305.175 463.986, 306 463.679 C 306.974 463.316, 308.552 464.562, 310.500 467.234 C 312.150 469.497, 314.175 471.524, 315 471.737 C 316.275 472.067, 316.266 471.929, 314.937 470.813 C 314.078 470.091, 312.181 467.731, 310.722 465.570 C 308.115 461.706, 308.104 461.616, 310.041 460.259 C 311.125 459.500, 312.661 457.623, 313.454 456.088 C 314.719 453.642, 314.711 453.033, 313.392 451.149 C 311.627 448.629, 306.260 448.296, 301.500 450.412 M 330.285 459.750 C 328.878 473.003, 330.270 475.649, 331.913 462.843 C 332.567 457.740, 333.258 453.408, 333.449 453.218 C 333.639 453.028, 334.090 455.263, 334.450 458.186 C 334.811 461.109, 335.344 464.742, 335.635 466.260 C 336.155 468.977, 338.407 472, 339.911 472 C 341.679 472, 343.182 465.981, 343.525 457.529 L 343.891 448.500 343.024 456.500 C 342.100 465.029, 340.652 470, 339.092 470 C 337.798 470, 337.265 467.812, 336.467 459.217 C 335.856 452.644, 334.314 449, 332.142 449 C 331.748 449, 330.913 453.837, 330.285 459.750 M 475.500 450.540 C 471.876 451.744, 471.715 451.935, 473.792 452.562 C 475.877 453.193, 476.029 453.673, 475.478 457.878 C 474.446 465.742, 473.876 468, 472.921 468 C 472.414 468, 472 468.419, 472 468.930 C 472 470.536, 476.370 470.582, 479.500 469.008 L 482.500 467.500 479.628 467.172 L 476.757 466.844 477.463 459.679 C 478.170 452.506, 478.978 451.044, 482.250 451.015 C 483.212 451.007, 484 450.550, 484 450 C 484 448.673, 480.432 448.900, 475.500 450.540 M 495.103 455.332 C 493.465 464.739, 493.687 468.407, 496.024 470.521 C 497.237 471.620, 498.389 471.982, 498.900 471.426 C 500.111 470.111, 508 451.751, 508 450.248 C 508 447.020, 505.995 449.805, 502.039 458.528 C 499.662 463.769, 497.292 468.320, 496.771 468.642 C 496.181 469.006, 496.094 465.415, 496.541 459.114 C 496.935 453.551, 497.021 449, 496.731 449 C 496.442 449, 495.709 451.849, 495.103 455.332 M 522.250 450.657 C 518.023 451.659, 516 452.623, 516 453.637 C 516 454.659, 516.610 454.941, 517.919 454.526 C 519.693 453.963, 519.756 454.185, 518.751 457.458 C 518.154 459.406, 517.318 461, 516.895 461 C 515.514 461, 517.200 468.452, 519.014 470.363 C 520.564 471.997, 521.228 472.080, 524.391 471.036 C 526.376 470.381, 528 469.216, 528 468.447 C 528 467.360, 527.430 467.266, 525.435 468.025 C 520.702 469.824, 518.831 469.306, 519.184 466.294 C 519.448 464.031, 520.279 463.347, 524.250 462.118 C 531.426 459.898, 530.439 457.867, 523.194 459.944 C 520.095 460.833, 519.939 460.760, 520.554 458.694 C 521.703 454.841, 523.989 452, 525.941 452 C 528.750 452, 531.066 450.915, 530.435 449.895 C 529.776 448.829, 530.092 448.799, 522.250 450.657 M 654.500 450.540 C 650.821 451.763, 650.688 451.926, 652.847 452.577 C 654.829 453.174, 655.101 453.747, 654.597 456.267 C 654.268 457.908, 654 460.737, 654 462.554 C 654 464.371, 653.325 466.532, 652.500 467.357 C 650.543 469.314, 650.604 469.663, 653.011 470.293 C 655.200 470.865, 661 469.042, 661 467.781 C 661 467.351, 659.829 467, 658.399 467 L 655.797 467 656.518 459.750 C 657.243 452.467, 658.014 451.044, 661.250 451.015 C 662.212 451.007, 663 450.550, 663 450 C 663 448.673, 659.432 448.900, 654.500 450.540 M 679.464 450.394 C 676.695 451.067, 673.875 451.959, 673.198 452.378 C 671.542 453.401, 672.816 455.285, 674.680 454.569 C 675.878 454.110, 676.025 454.619, 675.454 457.251 C 675.066 459.038, 674.348 460.756, 673.857 461.070 C 672.575 461.889, 673.700 469.129, 675.368 470.797 C 677.041 472.470, 682.219 471.646, 684.073 469.412 C 685.715 467.434, 684.631 466.592, 682.151 467.919 C 679.556 469.308, 675 469.318, 675 467.934 C 675 465.271, 677.278 463.182, 681.460 462.011 C 687.322 460.370, 687.393 458.669, 681.562 459.543 L 677.123 460.209 678.237 456.579 C 679.052 453.925, 680.043 452.800, 681.925 452.391 C 686.246 451.454, 687 451.103, 687 450.031 C 687 448.772, 685.924 448.824, 679.464 450.394 M 697.074 457.388 C 696.032 464.391, 696.049 466.330, 697.172 468.672 C 698.656 471.768, 700.809 472.346, 702.121 470 C 702.582 469.175, 704.544 464.980, 706.480 460.677 C 710.025 452.797, 710.845 449, 709 449 C 708.450 449, 708 449.405, 708 449.900 C 708 452.204, 699.845 468.238, 699.090 467.418 C 698.625 466.913, 698.673 462.956, 699.197 458.625 C 700.529 447.622, 698.687 446.548, 697.074 457.388 M 729.917 449.396 C 729.688 449.613, 727.925 450.036, 726 450.336 C 720.323 451.219, 717.892 452.181, 718.313 453.377 C 718.530 453.995, 719.463 454.364, 720.386 454.199 C 721.749 453.954, 721.940 454.423, 721.403 456.699 C 721.039 458.239, 720.350 459.928, 719.871 460.450 C 718.354 462.105, 718.929 467.691, 720.862 470.078 C 722.638 472.271, 722.899 472.310, 726.532 470.927 C 728.627 470.130, 730.551 468.848, 730.807 468.079 C 731.147 467.059, 730.763 466.883, 729.386 467.426 C 728.349 467.835, 726.038 468.416, 724.250 468.716 C 721.302 469.211, 721 469.029, 721 466.752 C 721 464.265, 722.467 463.271, 728.750 461.500 C 732.621 460.408, 731.253 458.936, 727 459.616 C 722.509 460.334, 722.601 460.443, 724.093 456.163 C 724.950 453.706, 726.039 452.797, 729.123 451.967 C 731.289 451.384, 732.795 450.478, 732.471 449.953 C 731.863 448.969, 730.646 448.703, 729.917 449.396 M 833 450.511 C 829.072 451.658, 828.788 451.915, 830.765 452.533 C 832.910 453.204, 832.997 453.595, 832.399 459.871 C 832.004 464.014, 831.190 466.959, 830.228 467.724 C 827.514 469.882, 832.680 471.018, 836.424 469.086 L 839.500 467.500 836.628 467.172 L 833.757 466.844 834.463 459.679 C 835.170 452.506, 835.978 451.044, 839.250 451.015 C 840.212 451.007, 841 450.550, 841 450 C 841 448.716, 838.628 448.867, 833 450.511 M 854.275 451.208 C 851.474 454.192, 848.050 461.797, 848.022 465.095 C 848.001 467.547, 850.634 471, 852.524 471 C 853.001 471, 854.653 469.791, 856.195 468.313 L 859 465.626 859 469.313 C 859 475.640, 860.680 473.348, 861.611 465.750 C 862.400 459.312, 862.752 458.464, 864.750 458.180 C 865.987 458.005, 867 457.442, 867 456.930 C 867 455.650, 863.289 455.892, 858.500 457.483 C 854.899 458.679, 854.724 458.882, 856.750 459.522 C 859.653 460.440, 859.599 460.817, 855.927 465.272 C 851.999 470.038, 850 470.130, 850 465.547 C 850 461.259, 851.625 457.328, 854.876 453.750 C 857.673 450.671, 859 450.269, 859 452.500 C 859 453.325, 859.481 454, 860.070 454 C 860.658 454, 860.995 452.988, 860.820 451.750 C 860.380 448.657, 856.938 448.372, 854.275 451.208 M 880.750 450.303 C 876.832 451.400, 875.687 453, 878.819 453 C 880.496 453, 880.565 453.566, 879.707 460.250 C 879.195 464.238, 878.277 467.813, 877.667 468.196 C 875.585 469.501, 879.202 470.802, 882 469.754 C 887.567 467.669, 887.619 467.611, 884.272 467.237 L 881.044 466.877 881.660 460.688 C 882.399 453.260, 883.420 451, 886.035 451 C 887.116 451, 888 450.550, 888 450 C 888 448.798, 885.794 448.890, 880.750 450.303 M 253.413 450.943 C 251.715 451.349, 249.802 452.004, 249.163 452.399 C 247.263 453.574, 247.841 454.854, 250.015 454.286 C 252.140 453.730, 252.140 453.743, 249.884 459.500 C 248.541 462.924, 248.704 467.907, 250.218 469.750 C 251.590 471.420, 254.935 471.273, 258 469.408 L 260.500 467.886 257.500 468.584 C 251.419 469.999, 250.500 469.729, 250.500 466.528 C 250.500 463.942, 251.083 463.322, 255 461.745 L 259.500 459.934 255.230 460.482 L 250.961 461.030 252.512 457.316 C 254.445 452.691, 254.392 452.741, 258.832 451.355 C 262.434 450.230, 262.446 450.210, 259.500 450.207 C 257.850 450.206, 255.111 450.537, 253.413 450.943 M 278.777 456.500 C 276.498 460.075, 273.950 463, 273.116 463 C 272.006 463, 271.897 463.297, 272.710 464.110 C 273.494 464.894, 273.519 466.081, 272.794 468.161 C 272.230 469.779, 272.001 471.334, 272.285 471.618 C 272.568 471.902, 273.330 470.529, 273.978 468.567 C 274.970 465.560, 275.614 465, 278.078 465 C 280.671 465, 281 465.345, 281 468.059 C 281 469.844, 281.417 470.861, 282 470.500 C 282.550 470.160, 283 468.559, 283 466.941 C 283 465.263, 283.537 463.993, 284.250 463.985 C 285.239 463.973, 285.242 463.805, 284.263 463.184 C 283.347 462.602, 283.282 461.504, 284.013 458.955 C 285.300 454.467, 285.274 450, 283.960 450 C 283.388 450, 281.056 452.925, 278.777 456.500 M 304.632 450.787 C 303.764 452.191, 302.232 463.001, 302.901 462.994 C 303.231 462.990, 305.662 461.134, 308.303 458.870 C 314.290 453.739, 314.481 450.665, 308.843 450.195 C 306.831 450.028, 304.936 450.294, 304.632 450.787 M 448.750 450.689 C 447.788 450.941, 446.973 451.676, 446.940 452.323 C 446.908 452.970, 446.529 455.637, 446.099 458.250 C 445.330 462.920, 446.629 465.136, 447.710 461 C 447.998 459.900, 449.050 459, 450.049 459 C 451.806 459, 456 454.210, 456 452.203 C 456 450.375, 452.639 449.673, 448.750 450.689 M 580.485 456.464 C 578.293 460.020, 575.889 462.945, 575.143 462.964 C 574.350 462.985, 574.026 463.627, 574.365 464.509 C 574.683 465.338, 574.490 467.212, 573.935 468.672 C 573.365 470.170, 573.303 471.703, 573.793 472.193 C 574.282 472.682, 575.239 471.305, 575.990 469.030 C 577.128 465.582, 577.730 465, 580.160 465 C 582.649 465, 583 465.371, 583 468 C 583 469.650, 583.450 471, 584 471 C 584.550 471, 585 469.425, 585 467.500 C 585 464.839, 585.420 463.996, 586.750 463.985 C 588.156 463.972, 588.225 463.795, 587.098 463.082 C 585.958 462.360, 585.894 461.196, 586.754 456.848 C 588.583 447.594, 586.049 447.439, 580.485 456.464 M 804.250 451.973 C 801.910 453.035, 800 454.598, 800 455.451 C 800 457.461, 800.881 457.408, 803.322 455.250 C 805.264 453.532, 805.288 453.574, 804.623 457.500 C 803.081 466.597, 802.805 470.761, 803.706 471.319 C 804.231 471.643, 807.886 468.782, 811.830 464.961 C 819.631 457.403, 820.760 454.346, 816.777 451.557 C 813.812 449.480, 809.422 449.626, 804.250 451.973 M 930.151 456.500 C 927.800 460.075, 925.407 463, 924.832 463 C 924.257 463, 924.058 463.708, 924.389 464.572 C 924.721 465.437, 924.515 467.037, 923.932 468.128 C 923.348 469.219, 923.060 470.648, 923.292 471.305 C 923.524 471.962, 924.430 470.813, 925.306 468.750 C 926.653 465.577, 927.370 465, 929.968 465 C 932.706 465, 932.973 465.259, 932.438 467.391 C 932.108 468.706, 932.324 470.082, 932.919 470.450 C 933.605 470.874, 934 469.988, 934 468.028 C 934 466.130, 934.611 464.703, 935.584 464.329 C 936.745 463.884, 936.845 463.522, 935.957 462.973 C 935.010 462.388, 935.011 461.124, 935.962 457.160 C 937.104 452.399, 936.833 450, 935.153 450 C 934.752 450, 932.501 452.925, 930.151 456.500 M 999.076 455.025 C 993.776 461.310, 992.564 461.390, 993.464 455.393 C 994.282 449.939, 992.581 450.092, 991.554 455.565 C 990.897 459.067, 992.091 462, 994.173 462 C 994.684 462, 996.693 460.313, 998.638 458.250 C 1001.793 454.903, 1002.096 454.769, 1001.457 457 C 1000.197 461.400, 996.077 468.858, 994.383 469.805 C 993.263 470.432, 993.101 470.944, 993.872 471.421 C 994.492 471.804, 995.509 471.804, 996.130 471.420 C 997.537 470.550, 1005 454.767, 1005 452.662 C 1005 449.464, 1003.139 450.206, 999.076 455.025 M 808.232 453.250 C 807.674 453.938, 806.963 456.371, 806.652 458.657 C 806.340 460.943, 805.799 464.093, 805.450 465.657 C 804.890 468.167, 805.602 467.708, 811.523 461.741 C 817.125 456.095, 818.026 454.737, 816.993 453.491 C 815.490 451.680, 809.635 451.519, 808.232 453.250 M 279.743 457.541 C 278.234 460.038, 277 462.288, 277 462.541 C 277 462.793, 278.075 463, 279.389 463 C 281.336 463, 281.901 462.340, 282.447 459.429 C 282.816 457.465, 283.364 455.215, 283.666 454.429 C 284.887 451.247, 282.309 453.291, 279.743 457.541 M 931.572 456.886 C 928.509 461.739, 928.366 463, 930.881 463 C 932.284 463, 933.059 461.824, 933.926 458.378 C 934.566 455.836, 934.877 453.544, 934.617 453.284 C 934.357 453.024, 932.987 454.645, 931.572 456.886 M 1017 460 C 1017 464.033, 1017.209 467.125, 1017.464 466.870 C 1018.202 466.131, 1018.369 454.035, 1017.650 453.317 C 1017.293 452.959, 1017 455.967, 1017 460 M 581.633 457.979 C 578.485 462.735, 578.448 463, 580.933 463 C 582.822 463, 583.176 462.367, 584.426 456.750 C 585.248 453.055, 584.744 453.277, 581.633 457.979 M 761 463 C 761 463.550, 763.052 464, 765.559 464 C 768.344 464, 769.878 463.611, 769.500 463 C 769.160 462.450, 767.109 462, 764.941 462 C 762.773 462, 761 462.450, 761 463" stroke="none" fill="#c8af73" fill-rule="evenodd"/><path d="M -0 287.001 L -0 574.002 624.750 573.751 L 1249.500 573.500 1249.752 286.750 L 1250.003 0 625.002 0 L 0 0 -0 287.001 M 0.493 287.500 C 0.493 445.350, 0.609 509.776, 0.750 430.669 C 0.891 351.562, 0.891 222.412, 0.750 143.669 C 0.609 64.926, 0.493 129.650, 0.493 287.500 M 451.171 79.777 C 441.970 109.779, 456.396 135.188, 491.136 150.165 C 514.852 160.389, 543.544 165.833, 585 167.974 C 612.427 169.390, 613.609 169.175, 595.500 166.061 C 528.076 154.466, 478.973 124.340, 457.383 81.323 L 453.233 73.054 451.171 79.777 M 791.222 82.165 C 770.711 124.058, 720.777 154.475, 653.500 166.058 C 635.392 169.175, 636.572 169.390, 664 167.974 C 745.377 163.772, 790.377 143.833, 799.612 107.887 C 801.488 100.584, 801.031 88.665, 798.569 80.743 C 796.077 72.720, 795.822 72.769, 791.222 82.165 M 471.495 155.250 C 472.930 166.295, 478.277 174.062, 488.500 179.951 C 495.948 184.241, 504.017 186.046, 518.638 186.694 C 537.548 187.531, 557.694 184.773, 584.500 177.677 L 596.500 174.500 589 174.281 C 531.997 172.613, 496.988 166.194, 478.015 153.931 C 474.669 151.769, 471.680 150, 471.372 150 C 471.064 150, 471.119 152.363, 471.495 155.250 M 769.500 154.629 C 750.452 166.330, 709.532 173.696, 661.500 174.071 L 651.500 174.149 660 176.541 C 705.915 189.461, 744.110 190.313, 762.222 178.823 C 770.913 173.309, 776.099 165.525, 777.513 155.868 C 777.886 153.321, 777.811 151.032, 777.346 150.783 C 776.881 150.533, 773.350 152.264, 769.500 154.629 M 593 182.634 C 582.993 185.829, 564.455 190.155, 550.391 192.577 C 531.024 195.911, 510.192 196.199, 499.238 193.282 L 491.976 191.348 492.596 193.424 C 494.991 201.436, 502.421 208.885, 510.292 211.164 C 512.606 211.835, 518.325 212.360, 523 212.332 C 540.296 212.229, 561.279 204.314, 590.750 186.775 C 601.142 180.591, 601.507 179.918, 593 182.634 M 650 181.393 C 650 182.331, 671.491 194.377, 682 199.329 C 702.262 208.876, 716.064 212.494, 729.614 211.808 C 742.880 211.137, 749.281 207.265, 754.672 196.651 C 756.026 193.983, 756.971 191.637, 756.771 191.437 C 756.570 191.237, 754.178 191.822, 751.453 192.736 C 745.042 194.888, 712.270 195.163, 701 193.159 C 689.394 191.095, 672.538 187.191, 661.229 183.946 C 650.496 180.867, 650 180.755, 650 181.393 M 592.277 194.379 C 581.609 201.697, 560.703 212.647, 550.367 216.331 C 546.444 217.729, 539.470 219.388, 534.869 220.018 C 530.268 220.648, 526.378 221.288, 526.225 221.441 C 526.072 221.594, 527.734 223.333, 529.917 225.306 C 542.661 236.820, 561.925 230.051, 586.268 205.506 C 595.025 196.677, 602.794 187.952, 601.834 188.026 C 601.650 188.040, 597.350 190.899, 592.277 194.379 M 650.066 192.183 C 651.903 194.557, 658.153 201.192, 663.953 206.926 C 680.285 223.071, 693.960 231, 705.472 231 C 712.475 231, 715.530 229.764, 719.652 225.265 L 723.020 221.588 713.260 219.947 C 697.506 217.300, 678.762 208.825, 656.613 194.334 L 646.725 187.865 650.066 192.183 M 643 196.358 C 643 196.754, 644.669 200.773, 646.708 205.289 C 658.740 231.931, 670.714 242.598, 682.500 237.175 L 686.500 235.335 682 233.311 C 672.243 228.923, 658.014 215.799, 647.044 201.069 C 644.820 198.083, 643 195.963, 643 196.358 M 602.828 199.713 C 599.766 204.892, 586.808 219.114, 580.133 224.622 C 576.485 227.632, 571.055 231.292, 568.067 232.755 L 562.633 235.414 566.567 237.179 C 573.657 240.362, 579.977 238.088, 587.784 229.546 C 592.870 223.981, 605.637 200.412, 604.848 198.044 C 604.643 197.429, 603.734 198.180, 602.828 199.713 M 543.137 296.711 C 538.256 299.307, 536.384 302.958, 537.558 307.589 C 538.786 312.438, 542.847 315.455, 548.145 315.455 C 556.753 315.455, 561.344 304.578, 555.214 298.705 C 551.496 295.143, 547.366 294.461, 543.137 296.711 M 459 345 L 459 393 468.500 393 L 478 393 478.042 385.250 C 478.081 377.934, 478.268 377.291, 481.375 373.777 L 484.666 370.053 493.850 381.527 L 503.033 393 514.639 393 C 523.774 393, 526.038 392.734, 525.275 391.750 C 524.742 391.063, 518.122 382.747, 510.564 373.271 L 496.824 356.042 510.412 340.291 C 517.885 331.628, 524 324.179, 524 323.737 C 524 323.296, 518.946 323.062, 512.769 323.217 L 501.538 323.500 490.019 337.645 L 478.500 351.791 478.234 324.395 L 477.968 297 468.484 297 L 459 297 459 345 M 576 345.036 L 576 393.072 585.750 392.786 L 595.500 392.500 595.760 344.750 L 596.019 297 586.010 297 L 576 297 576 345.036 M 614 345 L 614 393 623.500 393 L 633 393 633 345 L 633 297 623.500 297 L 614 297 614 345 M 1010 313.589 L 1010 330.178 1007.039 327.687 C 1001.702 323.196, 996.040 321.702, 986.282 322.209 C 975.982 322.744, 969.742 325.258, 963.690 331.310 C 950.614 344.386, 950.534 371.468, 963.533 384.467 C 974.372 395.306, 996.409 397.258, 1007.031 388.320 L 1010 385.822 1010 389.449 L 1010 393.075 1019.250 392.788 L 1028.500 392.500 1028.760 344.750 L 1029.019 297 1019.510 297 L 1010 297 1010 313.589 M 396.820 299.232 C 386.674 300.361, 379.241 303.503, 373.981 308.888 C 368.886 314.103, 366.989 319.072, 367.022 327.116 C 367.062 337.038, 372.653 344.663, 383.542 349.648 C 386.366 350.941, 395.116 353.363, 402.986 355.032 C 410.857 356.700, 417.792 358.342, 418.398 358.681 C 426.496 363.210, 425.617 371.549, 416.685 374.933 C 415.137 375.520, 410.735 376, 406.903 376 C 397.451 376, 388.641 373.053, 378.779 366.591 L 376.231 364.922 371.607 371.403 C 369.063 374.967, 366.724 378.556, 366.409 379.377 C 366.019 380.393, 367.540 381.998, 371.168 384.397 C 391.798 398.041, 424.148 398.029, 437.201 384.372 C 442.078 379.270, 444.140 374.044, 444.216 366.598 C 444.302 358.102, 442.620 352.946, 438.320 348.518 C 433.335 343.385, 426.332 340.377, 412.290 337.339 C 395.371 333.678, 393.859 333.245, 390.250 331.027 C 384.172 327.291, 386.569 320.644, 394.894 318.150 C 403.166 315.672, 413.860 317.473, 423.639 322.991 C 426.722 324.732, 429.581 325.783, 429.991 325.328 C 431.620 323.521, 440 311.565, 439.998 311.050 C 439.995 310.036, 431.563 305.215, 425 302.475 C 417.499 299.343, 406.845 298.117, 396.820 299.232 M 165 300.368 C 151.599 304.396, 139.687 313.852, 134.020 324.961 C 128.354 336.067, 127.495 351.760, 131.923 363.243 C 136.531 375.190, 146.958 385.477, 160 390.941 C 167.672 394.155, 184.166 394.961, 192.577 392.533 C 206.693 388.457, 217.490 379.587, 223.207 367.371 C 225.840 361.744, 226.390 359.210, 226.793 350.862 L 227.267 341 204.384 341.009 C 191.798 341.013, 179.137 341.301, 176.250 341.648 L 171 342.279 171 350.014 L 171 357.750 174.125 358.375 C 175.844 358.719, 183.494 359, 191.125 359 C 207.170 359, 207.543 359.286, 200.892 366.502 C 186.334 382.295, 160.797 378.542, 151.306 359.214 C 145.522 347.435, 148.529 332.986, 158.612 324.111 C 164.034 319.338, 170.408 317, 178 317 C 186.204 317, 192.139 319.398, 198.229 325.172 L 203.500 330.170 209.751 326.835 C 213.189 325.001, 216.981 322.763, 218.178 321.862 L 220.355 320.224 214.579 314.169 C 210.344 309.728, 206.516 306.980, 200.226 303.864 C 191.901 299.740, 191.323 299.606, 180.574 299.315 C 173.326 299.119, 167.945 299.483, 165 300.368 M 690 346.439 L 690 393 700 393 L 710 393 710 378.500 L 710 364 716.916 364 C 723.728 364, 723.875 364.056, 726.717 367.750 C 728.304 369.813, 733.352 376.337, 737.935 382.250 L 746.269 393 758.135 393 C 764.661 393, 770 392.787, 770 392.527 C 770 392.266, 764.833 385.404, 758.517 377.277 C 752.202 369.149, 747.027 362.265, 747.017 361.977 C 747.008 361.690, 748.622 360.581, 750.605 359.513 C 759.256 354.854, 765 343.876, 765 332 C 765 318.704, 758.739 308.582, 747.155 303.151 C 741.563 300.530, 741.213 300.497, 715.750 300.189 L 690 299.877 690 346.439 M 710 332 L 710 346 722.750 345.985 C 736.956 345.969, 739.204 345.305, 742.720 340.088 C 746.936 333.831, 744.923 322.563, 739.046 319.524 C 736.848 318.387, 732.784 318, 723.050 318 L 710 318 710 332 M 265.776 323.479 C 255.411 326.332, 246.932 333.649, 242.135 343.880 C 239.892 348.664, 239.503 350.839, 239.520 358.500 C 239.539 366.819, 239.799 367.979, 242.955 373.834 C 247.168 381.653, 255.244 389.051, 262.666 391.891 C 270.054 394.718, 282.866 394.803, 290.053 392.072 C 305.870 386.062, 316.167 370.266, 314.433 354.669 C 313.439 345.723, 308.062 335.863, 301.273 330.534 C 291.505 322.868, 277.854 320.155, 265.776 323.479 M 801.487 323.742 C 790.142 327.794, 782.744 334.016, 778.714 342.897 C 775.623 349.709, 775.603 366.559, 778.679 373.217 C 783.828 384.363, 794.434 391.732, 808.723 394.091 C 816.949 395.450, 825.640 394.244, 832.367 390.813 C 836.393 388.759, 846 380.369, 846 378.907 C 846 378.457, 842.867 376.258, 839.038 374.022 L 832.075 369.956 827.594 373.376 C 821.747 377.839, 815.355 378.822, 807.303 376.497 C 804.112 375.575, 800.666 374.075, 799.648 373.163 C 797.935 371.630, 795 366.822, 795 365.550 C 795 365.247, 807.326 365, 822.392 365 L 849.783 365 850.446 362.359 C 851.369 358.681, 850.107 349.481, 847.838 343.351 C 845.397 336.758, 838.205 329.405, 830.438 325.563 C 822.725 321.748, 809.414 320.910, 801.487 323.742 M 887 322.935 C 878.108 325.650, 870.499 332.248, 866.249 340.928 C 863.759 346.013, 863.521 347.506, 863.521 358 C 863.521 368.528, 863.754 369.977, 866.282 375.143 C 869.506 381.729, 876.205 388.284, 882.824 391.329 C 886.563 393.048, 889.410 393.481, 897.031 393.489 C 905.674 393.499, 907.142 393.213, 912.781 390.420 L 919 387.341 919 390.170 L 919 393 928.500 393 L 938 393 938 358 L 938 323 928.500 323 L 919 323 919 326.547 L 919 330.094 915.250 327.171 C 913.188 325.563, 909.970 323.742, 908.101 323.124 C 904.315 321.872, 890.875 321.752, 887 322.935 M 538 358 L 538 393 547.500 393 L 557 393 557 358 L 557 323 547.500 323 L 538 323 538 358 M 1041.373 326.250 C 1042.142 328.038, 1048.913 343.186, 1056.419 359.914 L 1070.066 390.328 1065.396 401.414 C 1062.828 407.511, 1060.107 413.962, 1059.350 415.750 L 1057.973 419 1068.316 419 L 1078.658 419 1097.478 372.789 C 1107.829 347.372, 1116.508 325.772, 1116.766 324.789 C 1117.193 323.154, 1116.326 323, 1106.717 323 L 1096.201 323 1091.498 335.750 C 1088.912 342.762, 1085.430 352.325, 1083.762 357 C 1082.093 361.675, 1080.395 365.871, 1079.989 366.324 C 1079.584 366.778, 1075.286 357.215, 1070.439 345.074 L 1061.627 323 1050.800 323 L 1039.973 323 1041.373 326.250 M 270.637 339.420 C 266.172 341.064, 261.506 345.194, 259.249 349.500 C 255.860 355.967, 258.156 368.313, 263.644 373.129 C 271.475 380.003, 283.631 379.415, 290.716 371.819 C 293.282 369.068, 296 361.972, 296 358.023 C 296 345.186, 282.290 335.129, 270.637 339.420 M 893.500 339.202 C 889.290 340.667, 884.247 345.720, 882.889 349.837 C 879.572 359.887, 883.277 371.050, 891.293 375.160 C 896.441 377.799, 905.094 378.053, 909.631 375.697 C 920.900 369.846, 923.339 353.916, 914.470 344.098 C 909.479 338.574, 900.997 336.593, 893.500 339.202 M 983.500 339.400 C 970.446 345.154, 968.119 364.887, 979.474 373.548 C 991.015 382.351, 1007.494 376.441, 1010.086 362.569 C 1011.918 352.765, 1007.238 342.797, 999.233 339.453 C 994.944 337.661, 987.503 337.636, 983.500 339.400 M 803.840 341.022 C 799.603 343.260, 796 347.448, 796 350.135 C 796 351.882, 797.076 352, 813 352 C 828.155 352, 830 351.820, 830 350.344 C 830 347.673, 825.013 341.904, 821.400 340.394 C 816.634 338.403, 808.229 338.703, 803.840 341.022 M 229.632 456.293 C 227.288 466.984, 227.630 470.399, 231.086 470.801 C 232.508 470.966, 234.228 470.430, 234.909 469.610 C 235.990 468.307, 235.763 468.263, 233.111 469.264 C 231.442 469.894, 229.745 470.078, 229.339 469.673 C 228.934 469.268, 229.590 464.584, 230.798 459.264 C 232.005 453.945, 232.644 449.244, 232.217 448.817 C 231.791 448.391, 230.627 451.755, 229.632 456.293 M 400.500 448.655 C 399.400 448.887, 395.231 449.767, 391.235 450.610 C 386.869 451.531, 384.221 452.549, 384.600 453.161 C 384.953 453.733, 386.664 453.910, 388.501 453.566 L 391.774 452.952 391.257 459.390 C 390.712 466.172, 391.419 471, 392.955 471 C 393.460 471, 393.824 468.863, 393.764 466.250 C 393.444 452.254, 393.741 451.692, 402 450.663 C 404.475 450.354, 406.725 450.072, 407 450.036 C 407.275 449.999, 406.825 449.533, 406 449 C 404.438 447.991, 403.824 447.952, 400.500 448.655 M 425.802 454.102 L 425.500 460.500 422.169 460.819 L 418.839 461.139 419.519 455.690 C 419.923 452.459, 419.804 449.997, 419.227 449.640 C 418.662 449.291, 417.968 451.566, 417.571 455.072 C 417.117 459.090, 416.378 461.301, 415.361 461.692 C 414.140 462.160, 414.097 462.442, 415.145 463.090 C 415.939 463.580, 416.337 465.306, 416.153 467.451 C 415.733 472.323, 417.593 471.948, 418.384 467 C 418.970 463.336, 419.283 463, 422.110 463 L 425.196 463 424.485 469.129 C 424.013 473.192, 424.116 475.047, 424.788 474.631 C 425.347 474.286, 426.117 471.303, 426.500 468.002 C 426.883 464.701, 427.518 462, 427.912 462 C 428.884 462, 427.997 449.729, 426.943 448.602 C 426.481 448.107, 425.967 450.582, 425.802 454.102 M 444.330 450.427 C 439.566 452.645, 437 455.273, 437 457.934 C 437 458.520, 437.450 459, 438 459 C 438.550 459, 439 458.395, 439 457.655 C 439 456.007, 442.188 453, 443.936 453 C 444.671 453, 444.965 453.648, 444.628 454.527 C 444.306 455.366, 443.827 459.754, 443.564 464.277 C 443.160 471.212, 443.254 471.946, 444.166 468.966 C 444.796 466.905, 446.244 464.961, 447.636 464.304 C 449.828 463.269, 450.276 463.540, 453.061 467.588 C 454.730 470.015, 456.862 471.986, 457.798 471.968 C 459.325 471.940, 459.339 471.811, 457.937 470.718 C 457.078 470.048, 455.181 467.731, 453.722 465.570 C 451.115 461.706, 451.104 461.616, 453.041 460.259 C 454.125 459.500, 455.698 457.550, 456.538 455.926 C 457.989 453.121, 457.941 452.850, 455.578 450.487 C 452.491 447.400, 450.849 447.391, 444.330 450.427 M 606.679 450.340 C 600.815 455.159, 598.108 466.978, 602.050 470.545 C 604.041 472.347, 604.199 472.348, 607.506 470.567 C 609.379 469.558, 610.819 468.447, 610.705 468.097 C 610.592 467.747, 611.737 466.124, 613.250 464.490 C 617.816 459.559, 616.342 459.507, 610.892 464.407 C 604.525 470.132, 602 470.428, 602 465.450 C 602 461.565, 604.086 456.755, 607.291 453.250 C 609.636 450.685, 611.494 450.269, 610.638 452.500 C 610.322 453.325, 610.472 454, 610.972 454 C 613.401 454, 613.076 449.627, 610.576 448.668 C 609.878 448.400, 608.124 449.152, 606.679 450.340 M 636 452.918 C 636 459.640, 635.312 461, 631.908 461 L 629.031 461 629.658 455 C 630.066 451.097, 629.920 449, 629.241 449 C 628.666 449, 627.887 451.667, 627.508 454.927 C 627.043 458.939, 626.311 461.051, 625.243 461.460 C 624.041 461.922, 623.943 462.343, 624.833 463.233 C 625.475 463.875, 626 465.858, 626 467.641 C 626 469.424, 626.450 471.160, 627 471.500 C 627.581 471.859, 628 470.868, 628 469.130 C 628 465.678, 630.254 463, 633.159 463 C 634.969 463, 635.108 463.437, 634.515 467.250 C 634.151 469.587, 633.615 472.341, 633.322 473.368 C 632.960 474.640, 633.223 475.095, 634.145 474.794 C 634.926 474.539, 635.892 471.841, 636.427 468.426 C 636.936 465.167, 637.614 462.275, 637.932 462 C 638.871 461.187, 637.914 448, 636.915 448 C 636.412 448, 636 450.213, 636 452.918 M 910 448.666 C 901.086 450.070, 893.050 452.273, 893.600 453.161 C 893.957 453.740, 895.676 453.908, 897.581 453.551 L 900.932 452.922 900.331 459.356 C 899.704 466.075, 900.391 471, 901.955 471 C 902.460 471, 902.824 468.863, 902.764 466.250 C 902.444 452.254, 902.741 451.692, 911 450.663 C 913.475 450.354, 915.725 450.072, 916 450.036 C 916.275 449.999, 915.825 449.533, 915 449 C 914.175 448.467, 913.275 448.085, 913 448.151 C 912.725 448.218, 911.375 448.450, 910 448.666 M 953.674 449 C 952.428 451.939, 950.029 463.554, 950.015 466.715 C 949.995 471.082, 953.077 472.835, 956.654 470.491 C 959.566 468.583, 959.159 467.309, 956.151 468.919 C 955.040 469.514, 953.652 470, 953.066 470 C 951.559 470, 951.743 465.231, 953.550 457.441 C 955.053 450.961, 955.132 445.559, 953.674 449 M 972.683 455.750 C 970.167 467.886, 970.191 469.497, 972.907 470.950 C 974.379 471.738, 975.349 471.514, 977.157 469.969 L 979.500 467.968 976.723 469.157 C 972.278 471.060, 971.854 469.465, 974.018 458.981 C 976.274 448.043, 976.279 448, 975.145 448 C 974.674 448, 973.566 451.488, 972.683 455.750 M 301.500 450.412 C 297.618 452.137, 293.586 456.522, 294.509 458.014 C 294.988 458.790, 295.606 458.434, 296.364 456.946 C 296.989 455.720, 298.587 454.001, 299.915 453.127 L 302.330 451.537 301.718 455.519 C 300.234 465.180, 299.852 472.496, 300.909 471 C 301.492 470.175, 301.976 468.337, 301.985 466.917 C 301.993 465.496, 302.563 464.312, 303.250 464.286 C 303.938 464.260, 305.175 463.986, 306 463.679 C 306.974 463.316, 308.552 464.562, 310.500 467.234 C 312.150 469.497, 314.175 471.524, 315 471.737 C 316.275 472.067, 316.266 471.929, 314.937 470.813 C 314.078 470.091, 312.181 467.731, 310.722 465.570 C 308.115 461.706, 308.104 461.616, 310.041 460.259 C 311.125 459.500, 312.661 457.623, 313.454 456.088 C 314.719 453.642, 314.711 453.033, 313.392 451.149 C 311.627 448.629, 306.260 448.296, 301.500 450.412 M 330.285 459.750 C 328.878 473.003, 330.270 475.649, 331.913 462.843 C 332.567 457.740, 333.258 453.408, 333.449 453.218 C 333.639 453.028, 334.090 455.263, 334.450 458.186 C 334.811 461.109, 335.344 464.742, 335.635 466.260 C 336.155 468.977, 338.407 472, 339.911 472 C 341.679 472, 343.182 465.981, 343.525 457.529 L 343.891 448.500 343.024 456.500 C 342.100 465.029, 340.652 470, 339.092 470 C 337.798 470, 337.265 467.812, 336.467 459.217 C 335.856 452.644, 334.314 449, 332.142 449 C 331.748 449, 330.913 453.837, 330.285 459.750 M 475.500 450.540 C 471.876 451.744, 471.715 451.935, 473.792 452.562 C 475.877 453.193, 476.029 453.673, 475.478 457.878 C 474.446 465.742, 473.876 468, 472.921 468 C 472.414 468, 472 468.419, 472 468.930 C 472 470.536, 476.370 470.582, 479.500 469.008 L 482.500 467.500 479.628 467.172 L 476.757 466.844 477.463 459.679 C 478.170 452.506, 478.978 451.044, 482.250 451.015 C 483.212 451.007, 484 450.550, 484 450 C 484 448.673, 480.432 448.900, 475.500 450.540 M 495.103 455.332 C 493.465 464.739, 493.687 468.407, 496.024 470.521 C 497.237 471.620, 498.389 471.982, 498.900 471.426 C 500.111 470.111, 508 451.751, 508 450.248 C 508 447.020, 505.995 449.805, 502.039 458.528 C 499.662 463.769, 497.292 468.320, 496.771 468.642 C 496.181 469.006, 496.094 465.415, 496.541 459.114 C 496.935 453.551, 497.021 449, 496.731 449 C 496.442 449, 495.709 451.849, 495.103 455.332 M 522.250 450.657 C 518.023 451.659, 516 452.623, 516 453.637 C 516 454.659, 516.610 454.941, 517.919 454.526 C 519.693 453.963, 519.756 454.185, 518.751 457.458 C 518.154 459.406, 517.318 461, 516.895 461 C 515.514 461, 517.200 468.452, 519.014 470.363 C 520.564 471.997, 521.228 472.080, 524.391 471.036 C 526.376 470.381, 528 469.216, 528 468.447 C 528 467.360, 527.430 467.266, 525.435 468.025 C 520.702 469.824, 518.831 469.306, 519.184 466.294 C 519.448 464.031, 520.279 463.347, 524.250 462.118 C 531.426 459.898, 530.439 457.867, 523.194 459.944 C 520.095 460.833, 519.939 460.760, 520.554 458.694 C 521.703 454.841, 523.989 452, 525.941 452 C 528.750 452, 531.066 450.915, 530.435 449.895 C 529.776 448.829, 530.092 448.799, 522.250 450.657 M 654.500 450.540 C 650.821 451.763, 650.688 451.926, 652.847 452.577 C 654.829 453.174, 655.101 453.747, 654.597 456.267 C 654.268 457.908, 654 460.737, 654 462.554 C 654 464.371, 653.325 466.532, 652.500 467.357 C 650.543 469.314, 650.604 469.663, 653.011 470.293 C 655.200 470.865, 661 469.042, 661 467.781 C 661 467.351, 659.829 467, 658.399 467 L 655.797 467 656.518 459.750 C 657.243 452.467, 658.014 451.044, 661.250 451.015 C 662.212 451.007, 663 450.550, 663 450 C 663 448.673, 659.432 448.900, 654.500 450.540 M 679.464 450.394 C 676.695 451.067, 673.875 451.959, 673.198 452.378 C 671.542 453.401, 672.816 455.285, 674.680 454.569 C 675.878 454.110, 676.025 454.619, 675.454 457.251 C 675.066 459.038, 674.348 460.756, 673.857 461.070 C 672.575 461.889, 673.700 469.129, 675.368 470.797 C 677.041 472.470, 682.219 471.646, 684.073 469.412 C 685.715 467.434, 684.631 466.592, 682.151 467.919 C 679.556 469.308, 675 469.318, 675 467.934 C 675 465.271, 677.278 463.182, 681.460 462.011 C 687.322 460.370, 687.393 458.669, 681.562 459.543 L 677.123 460.209 678.237 456.579 C 679.052 453.925, 680.043 452.800, 681.925 452.391 C 686.246 451.454, 687 451.103, 687 450.031 C 687 448.772, 685.924 448.824, 679.464 450.394 M 697.074 457.388 C 696.032 464.391, 696.049 466.330, 697.172 468.672 C 698.656 471.768, 700.809 472.346, 702.121 470 C 702.582 469.175, 704.544 464.980, 706.480 460.677 C 710.025 452.797, 710.845 449, 709 449 C 708.450 449, 708 449.405, 708 449.900 C 708 452.204, 699.845 468.238, 699.090 467.418 C 698.625 466.913, 698.673 462.956, 699.197 458.625 C 700.529 447.622, 698.687 446.548, 697.074 457.388 M 729.917 449.396 C 729.688 449.613, 727.925 450.036, 726 450.336 C 720.323 451.219, 717.892 452.181, 718.313 453.377 C 718.530 453.995, 719.463 454.364, 720.386 454.199 C 721.749 453.954, 721.940 454.423, 721.403 456.699 C 721.039 458.239, 720.350 459.928, 719.871 460.450 C 718.354 462.105, 718.929 467.691, 720.862 470.078 C 722.638 472.271, 722.899 472.310, 726.532 470.927 C 728.627 470.130, 730.551 468.848, 730.807 468.079 C 731.147 467.059, 730.763 466.883, 729.386 467.426 C 728.349 467.835, 726.038 468.416, 724.250 468.716 C 721.302 469.211, 721 469.029, 721 466.752 C 721 464.265, 722.467 463.271, 728.750 461.500 C 732.621 460.408, 731.253 458.936, 727 459.616 C 722.509 460.334, 722.601 460.443, 724.093 456.163 C 724.950 453.706, 726.039 452.797, 729.123 451.967 C 731.289 451.384, 732.795 450.478, 732.471 449.953 C 731.863 448.969, 730.646 448.703, 729.917 449.396 M 833 450.511 C 829.072 451.658, 828.788 451.915, 830.765 452.533 C 832.910 453.204, 832.997 453.595, 832.399 459.871 C 832.004 464.014, 831.190 466.959, 830.228 467.724 C 827.514 469.882, 832.680 471.018, 836.424 469.086 L 839.500 467.500 836.628 467.172 L 833.757 466.844 834.463 459.679 C 835.170 452.506, 835.978 451.044, 839.250 451.015 C 840.212 451.007, 841 450.550, 841 450 C 841 448.716, 838.628 448.867, 833 450.511 M 854.275 451.208 C 851.474 454.192, 848.050 461.797, 848.022 465.095 C 848.001 467.547, 850.634 471, 852.524 471 C 853.001 471, 854.653 469.791, 856.195 468.313 L 859 465.626 859 469.313 C 859 475.640, 860.680 473.348, 861.611 465.750 C 862.400 459.312, 862.752 458.464, 864.750 458.180 C 865.987 458.005, 867 457.442, 867 456.930 C 867 455.650, 863.289 455.892, 858.500 457.483 C 854.899 458.679, 854.724 458.882, 856.750 459.522 C 859.653 460.440, 859.599 460.817, 855.927 465.272 C 851.999 470.038, 850 470.130, 850 465.547 C 850 461.259, 851.625 457.328, 854.876 453.750 C 857.673 450.671, 859 450.269, 859 452.500 C 859 453.325, 859.481 454, 860.070 454 C 860.658 454, 860.995 452.988, 860.820 451.750 C 860.380 448.657, 856.938 448.372, 854.275 451.208 M 880.750 450.303 C 876.832 451.400, 875.687 453, 878.819 453 C 880.496 453, 880.565 453.566, 879.707 460.250 C 879.195 464.238, 878.277 467.813, 877.667 468.196 C 875.585 469.501, 879.202 470.802, 882 469.754 C 887.567 467.669, 887.619 467.611, 884.272 467.237 L 881.044 466.877 881.660 460.688 C 882.399 453.260, 883.420 451, 886.035 451 C 887.116 451, 888 450.550, 888 450 C 888 448.798, 885.794 448.890, 880.750 450.303 M 253.413 450.943 C 251.715 451.349, 249.802 452.004, 249.163 452.399 C 247.263 453.574, 247.841 454.854, 250.015 454.286 C 252.140 453.730, 252.140 453.743, 249.884 459.500 C 248.541 462.924, 248.704 467.907, 250.218 469.750 C 251.590 471.420, 254.935 471.273, 258 469.408 L 260.500 467.886 257.500 468.584 C 251.419 469.999, 250.500 469.729, 250.500 466.528 C 250.500 463.942, 251.083 463.322, 255 461.745 L 259.500 459.934 255.230 460.482 L 250.961 461.030 252.512 457.316 C 254.445 452.691, 254.392 452.741, 258.832 451.355 C 262.434 450.230, 262.446 450.210, 259.500 450.207 C 257.850 450.206, 255.111 450.537, 253.413 450.943 M 278.777 456.500 C 276.498 460.075, 273.950 463, 273.116 463 C 272.006 463, 271.897 463.297, 272.710 464.110 C 273.494 464.894, 273.519 466.081, 272.794 468.161 C 272.230 469.779, 272.001 471.334, 272.285 471.618 C 272.568 471.902, 273.330 470.529, 273.978 468.567 C 274.970 465.560, 275.614 465, 278.078 465 C 280.671 465, 281 465.345, 281 468.059 C 281 469.844, 281.417 470.861, 282 470.500 C 282.550 470.160, 283 468.559, 283 466.941 C 283 465.263, 283.537 463.993, 284.250 463.985 C 285.239 463.973, 285.242 463.805, 284.263 463.184 C 283.347 462.602, 283.282 461.504, 284.013 458.955 C 285.300 454.467, 285.274 450, 283.960 450 C 283.388 450, 281.056 452.925, 278.777 456.500 M 304.632 450.787 C 303.764 452.191, 302.232 463.001, 302.901 462.994 C 303.231 462.990, 305.662 461.134, 308.303 458.870 C 314.290 453.739, 314.481 450.665, 308.843 450.195 C 306.831 450.028, 304.936 450.294, 304.632 450.787 M 448.750 450.689 C 447.788 450.941, 446.973 451.676, 446.940 452.323 C 446.908 452.970, 446.529 455.637, 446.099 458.250 C 445.330 462.920, 446.629 465.136, 447.710 461 C 447.998 459.900, 449.050 459, 450.049 459 C 451.806 459, 456 454.210, 456 452.203 C 456 450.375, 452.639 449.673, 448.750 450.689 M 580.485 456.464 C 578.293 460.020, 575.889 462.945, 575.143 462.964 C 574.350 462.985, 574.026 463.627, 574.365 464.509 C 574.683 465.338, 574.490 467.212, 573.935 468.672 C 573.365 470.170, 573.303 471.703, 573.793 472.193 C 574.282 472.682, 575.239 471.305, 575.990 469.030 C 577.128 465.582, 577.730 465, 580.160 465 C 582.649 465, 583 465.371, 583 468 C 583 469.650, 583.450 471, 584 471 C 584.550 471, 585 469.425, 585 467.500 C 585 464.839, 585.420 463.996, 586.750 463.985 C 588.156 463.972, 588.225 463.795, 587.098 463.082 C 585.958 462.360, 585.894 461.196, 586.754 456.848 C 588.583 447.594, 586.049 447.439, 580.485 456.464 M 804.250 451.973 C 801.910 453.035, 800 454.598, 800 455.451 C 800 457.461, 800.881 457.408, 803.322 455.250 C 805.264 453.532, 805.288 453.574, 804.623 457.500 C 803.081 466.597, 802.805 470.761, 803.706 471.319 C 804.231 471.643, 807.886 468.782, 811.830 464.961 C 819.631 457.403, 820.760 454.346, 816.777 451.557 C 813.812 449.480, 809.422 449.626, 804.250 451.973 M 930.151 456.500 C 927.800 460.075, 925.407 463, 924.832 463 C 924.257 463, 924.058 463.708, 924.389 464.572 C 924.721 465.437, 924.515 467.037, 923.932 468.128 C 923.348 469.219, 923.060 470.648, 923.292 471.305 C 923.524 471.962, 924.430 470.813, 925.306 468.750 C 926.653 465.577, 927.370 465, 929.968 465 C 932.706 465, 932.973 465.259, 932.438 467.391 C 932.108 468.706, 932.324 470.082, 932.919 470.450 C 933.605 470.874, 934 469.988, 934 468.028 C 934 466.130, 934.611 464.703, 935.584 464.329 C 936.745 463.884, 936.845 463.522, 935.957 462.973 C 935.010 462.388, 935.011 461.124, 935.962 457.160 C 937.104 452.399, 936.833 450, 935.153 450 C 934.752 450, 932.501 452.925, 930.151 456.500 M 999.076 455.025 C 993.776 461.310, 992.564 461.390, 993.464 455.393 C 994.282 449.939, 992.581 450.092, 991.554 455.565 C 990.897 459.067, 992.091 462, 994.173 462 C 994.684 462, 996.693 460.313, 998.638 458.250 C 1001.793 454.903, 1002.096 454.769, 1001.457 457 C 1000.197 461.400, 996.077 468.858, 994.383 469.805 C 993.263 470.432, 993.101 470.944, 993.872 471.421 C 994.492 471.804, 995.509 471.804, 996.130 471.420 C 997.537 470.550, 1005 454.767, 1005 452.662 C 1005 449.464, 1003.139 450.206, 999.076 455.025 M 808.232 453.250 C 807.674 453.938, 806.963 456.371, 806.652 458.657 C 806.340 460.943, 805.799 464.093, 805.450 465.657 C 804.890 468.167, 805.602 467.708, 811.523 461.741 C 817.125 456.095, 818.026 454.737, 816.993 453.491 C 815.490 451.680, 809.635 451.519, 808.232 453.250 M 279.743 457.541 C 278.234 460.038, 277 462.288, 277 462.541 C 277 462.793, 278.075 463, 279.389 463 C 281.336 463, 281.901 462.340, 282.447 459.429 C 282.816 457.465, 283.364 455.215, 283.666 454.429 C 284.887 451.247, 282.309 453.291, 279.743 457.541 M 931.572 456.886 C 928.509 461.739, 928.366 463, 930.881 463 C 932.284 463, 933.059 461.824, 933.926 458.378 C 934.566 455.836, 934.877 453.544, 934.617 453.284 C 934.357 453.024, 932.987 454.645, 931.572 456.886 M 1017 460 C 1017 464.033, 1017.209 467.125, 1017.464 466.870 C 1018.202 466.131, 1018.369 454.035, 1017.650 453.317 C 1017.293 452.959, 1017 455.967, 1017 460 M 581.633 457.979 C 578.485 462.735, 578.448 463, 580.933 463 C 582.822 463, 583.176 462.367, 584.426 456.750 C 585.248 453.055, 584.744 453.277, 581.633 457.979 M 761 463 C 761 463.550, 763.052 464, 765.559 464 C 768.344 464, 769.878 463.611, 769.500 463 C 769.160 462.450, 767.109 462, 764.941 462 C 762.773 462, 761 462.450, 761 463" stroke="none" fill="#202020" fill-rule="evenodd"/></svg>